<?xml version="1.0" encoding="UTF-8"?>
<svg width="162px" height="142px" viewBox="0 0 162 142" version="1.1" xmlns="http://www.w3.org/2000/svg" xmlns:xlink="http://www.w3.org/1999/xlink">
    <title>Group 2</title>
    <defs>
        <polygon id="path-1" points="0 0 60 0 60 67 0 67"></polygon>
        <polygon id="path-3" points="0 0 18 0 18 29 0 29"></polygon>
        <polygon id="path-5" points="0 0 23 0 23 30 0 30"></polygon>
        <polygon id="path-7" points="0 0 43 0 43 14.5381539 0 14.5381539"></polygon>
    </defs>
    <g id="Symbols" stroke="none" stroke-width="1" fill="none" fill-rule="evenodd">
        <g id="footer" transform="translate(-360.000000, -54.000000)">
            <g id="Group-2" transform="translate(360.000000, 54.000000)">
                <g id="luvlu_logo_white" transform="translate(19.000000, 0.000000)">
                    <g id="Clipped" transform="translate(39.000000, 0.000000)">
                        <mask id="mask-2" fill="white">
                            <use xlink:href="#path-1"></use>
                        </mask>
                        <g id="k18j3cs9ca"></g>
                        <path d="M1.963,67 C0.879585865,66.9945137 0.00328087241,66.1164231 0,65.033 L0,12.703 C0,11.572 0.276,11.076 0.75,10.703 L13.91,0.422 C14.501331,-0.0428887102 15.30601,-0.129839066 15.983,0.198 C16.6595459,0.52854549 17.0892742,1.21502476 17.091,1.968 L17.091,43.76 C17.091,44.87 17.072,46.461 15.778,47.483 C13.965,48.916 11.858,50.548 11.858,50.548 L11.858,7.003 L5.184,12.258 L5.184,60.082 C5.184,60.082 25.897,44.084 26.397,43.663 C30.633,40.097 42.173,30.406 58.44,34.131 C59.04202,34.2625975 59.5495013,34.6648918 59.815,35.221 C60.0766002,35.7818714 60.060315,36.4329093 59.771,36.98 C59.562,37.372 54.457,46.033 45.952,48.811 C37.844,51.465 29.749,48.188 29.749,48.188 C29.749,48.188 31.307,46.172 34.026,46.608 C36.74,47.047 41.25,47.086 45.403,45.07 C49.878,42.897 52.903,38.98 53.536,37.564 C43.147,35.968 36.713,40.873 28.923,46.677 C28.313,47.133 3.165,66.59 3.165,66.59 C2.812,66.86 2.39,67 1.963,67" id="Path" fill="#F4F4F4" fill-rule="nonzero" mask="url(#mask-2)"></path>
                    </g>
                    <g id="Clipped" transform="translate(0.000000, 79.000000)">
                        <mask id="mask-4" fill="white">
                            <use xlink:href="#path-3"></use>
                        </mask>
                        <g id="zet5ex90qc"></g>
                        <path d="M5.325,25.99 L18,25.99 L18,29 L0,29 L0,0 L2.31,0 C3.904,0 5.324,0.506 5.324,2.277 L5.324,25.99 L5.325,25.99 Z" id="Path" fill="#F4F4F4" fill-rule="nonzero" mask="url(#mask-4)"></path>
                    </g>
                    <path d="M73.39,79 L64.33,100.674 L56.183,81.467 C56.183,81.467 55.323,79 52.363,79 L49,79 L61.643,108 L64.607,108 L77,79 L73.39,79 Z M41.747,78 L41.747,96.416 C41.747,100.683 40.534,104.933 34.605,104.933 C27.815,104.933 27.465,98.81 27.465,96.85 L27.465,82.16 C27.465,82.16 27.46,80.927 27.46,80.32 C27.46,78.515 26.005,78.001 24.375,78.001 L22,78.001 L22,96.605 C22,101.662 24.202,108 34.449,108 C42.138,108 45,102.573 45,96.847 L45,78 L41.747,78 Z M88.324,104.99 L101,104.99 L101,108 L83,108 L83,79 L85.312,79 C86.904,79 88.324,79.506 88.324,81.277 L88.324,104.99 L88.324,104.99 Z" id="Shape" fill="#F4F4F4" fill-rule="nonzero"></path>
                    <g id="Clipped" transform="translate(105.000000, 78.000000)">
                        <mask id="mask-6" fill="white">
                            <use xlink:href="#path-5"></use>
                        </mask>
                        <g id="klo0ayuz6e"></g>
                        <path d="M19.745,0 L19.745,18.416 C19.745,22.683 18.533,26.933 12.605,26.933 C5.815,26.933 5.467,20.81 5.467,18.85 L5.467,4.16 C5.467,4.16 5.463,2.927 5.463,2.32 C5.463,0.514 4.004,0 2.376,0 L0,0 L0,18.604 C0,23.662 2.204,30 12.45,30 C20.137,30 23,24.573 23,18.847 L23,0 L19.745,0 Z" id="Path" fill="#F4F4F4" fill-rule="nonzero" mask="url(#mask-6)"></path>
                    </g>
                </g>
                <g id="sungho_em" transform="translate(0.000000, 112.000000)">
                    <path d="M28.1191212,23.4961679 C27.8058604,23.4961679 27.4955736,23.4791736 27.1912348,23.4461846 C28.6820822,21.2538831 29.5691284,18.7018028 29.7617577,16.0506498 L23.2943102,16.0506498 C23.0922708,17.6022104 22.4716015,19.0680328 21.5,20.2882373 C20.5281886,19.0677779 19.9075045,17.6015746 19.7056898,16.0496501 L13.2382423,16.0496501 C13.4307779,18.7008228 14.3178324,21.2529271 15.8087652,23.4451849 C15.5034351,23.4791736 15.1941396,23.4961679 14.8808788,23.4961679 C10.573543,23.4961679 7.01466249,20.2522493 6.46744744,16.0506498 L0,16.0506498 C0.57199834,23.8510497 7.01565382,30 14.8808788,30 C17.258092,30 19.5054408,29.4381873 21.5,28.4395202 C23.4945592,29.4391869 25.741908,30 28.1191212,30 C35.9843462,30 42.4280017,23.8510497 42.9990087,16.0506498 L36.5325526,16.0506498 C35.9843462,20.2522493 32.426457,23.4961679 28.1191212,23.4961679" id="Path" fill="#C4C4C4" fill-rule="nonzero"></path>
                    <g id="Clipped">
                        <mask id="mask-8" fill="white">
                            <use xlink:href="#path-7"></use>
                        </mask>
                        <g id="1fxe3ytrja"></g>
                        <path d="M14.8888095,6.58480506 C15.1981563,6.5849807 15.5072588,6.60233453 15.8147132,6.63678774 C14.2452917,8.97947167 13.3481823,11.7138395 13.222381,14.5381539 L19.6640539,14.5381539 C19.8017548,12.8215542 20.44061,11.1845504 21.5,9.83372209 C22.559442,11.1845203 23.1983037,12.8215405 23.3359461,14.5381539 L29.7766276,14.5381539 C29.6511209,11.7139371 28.7543572,8.97957713 27.1852868,6.63678774 C27.4927412,6.60233453 27.8018437,6.5849807 28.1111905,6.58480506 C32.5523561,6.58480506 36.1964911,10.0836388 36.5583272,14.5381539 L43,14.5381539 C42.6272593,6.44485172 36.1042973,-9.87654535e-06 28.1111905,-9.87654535e-06 C25.7369513,-9.87654535e-06 23.4915852,0.568810397 21.4990087,1.57947351 C19.448989,0.538343668 17.1851275,-0.00267568699 14.8898008,-9.87654535e-06 C6.89570269,-9.87654535e-06 0.371749354,6.44485172 0,14.5381539 L6.44167281,14.5381539 C6.80350885,10.0836388 10.4466525,6.58480506 14.8878181,6.58480506" id="Path" fill="#C4C4C4" fill-rule="nonzero" mask="url(#mask-8)"></path>
                    </g>
                </g>
                <g id="sungho_name" transform="translate(48.000354, 117.000000)" fill="#C4C4C4">
                    <path d="M17.0466461,4.08 C17.0866461,5.16 17.7366461,5.947 18.9966461,6.44 C19.9866461,6.813 21.4546461,7.033 23.3966461,7.1 L23.3966461,9.14 C21.6816461,9.087 20.2616461,8.933 19.1366461,8.68 C17.3816461,8.28 16.1696461,7.62 15.4996461,6.7 C14.8296461,7.62 13.5976461,8.28 11.8026461,8.68 C10.6636461,8.933 9.2636461,9.087 7.6026461,9.14 L7.6026461,7.1 C9.5326461,7.046 10.9986461,6.826 12.0026461,6.44 C13.2626461,5.947 13.9126461,5.16 13.9526461,4.08 L7.6026461,4.08 L7.6026461,2 L23.3966461,2 L23.3966461,4.08 L17.0466461,4.08 L17.0466461,4.08 Z M14.3146461,19 L14.3146461,13.48 L6.9996461,13.48 L6.9996461,11.4 L23.9996461,11.4 L23.9996461,13.48 L16.6446461,13.48 L16.6446461,19 L14.3146461,19 Z M3.9996461,20 C2.5256461,19.367 1.4746461,18.175 0.847646104,16.424 C0.257646104,14.835 -0.0243538961,12.64 0.0016461039,9.838 C0.0016461039,7.104 0.321646104,4.936 0.961646104,3.333 C1.6166461,1.69 2.6296461,0.58 3.9996461,0 L3.9996461,2.727 C3.2816461,3.171 2.7696461,4.202 2.4616461,5.818 C2.2566461,6.936 2.1546461,8.289 2.1546461,9.878 C2.1416461,11.495 2.2376461,12.868 2.4426461,14 C2.7506461,15.697 3.2696461,16.794 3.9996461,17.293 L3.9996461,20 Z M28.5196461,14.006 C28.7366461,12.849 28.8456461,11.47 28.8456461,9.869 C28.8326461,8.295 28.7246461,6.943 28.5186461,5.812 C28.2116461,4.198 27.7046461,3.168 26.9996461,2.725 L26.9996461,0 C28.3716461,0.592 29.3846461,1.702 30.0376461,3.33 C30.6796461,4.93 30.9996461,7.097 30.9996461,9.828 C30.9996461,12.627 30.7116461,14.82 30.1346461,16.408 C29.4936461,18.157 28.4486461,19.354 26.9996461,20 L26.9996461,17.296 C27.7176461,16.798 28.2236461,15.701 28.5196461,14.006 M49.6966461,2.935 L49.6966461,1 L51.9996461,1 L51.9996461,8.881 L49.6966461,8.881 L49.6966461,4.991 L46.3706461,4.991 L46.3706461,2.935 L49.6966461,2.935 Z M43.5966461,11.562 C42.9396461,12.167 42.6116461,12.899 42.6116461,13.759 C42.6116461,14.606 42.9396461,15.331 43.5956461,15.936 C44.2256461,16.527 44.9476461,16.823 45.7606461,16.823 C46.5876461,16.823 47.3156461,16.527 47.9456461,15.936 C48.6016461,15.331 48.9296461,14.606 48.9296461,13.759 C48.9296461,12.899 48.6016461,12.167 47.9456461,11.562 C47.3156461,10.998 46.5876461,10.715 45.7606461,10.715 C44.9476461,10.715 44.2256461,10.998 43.5956461,11.562 L43.5966461,11.562 Z M49.5586461,9.929 C50.7136461,10.937 51.2906461,12.214 51.2906461,13.759 C51.2906461,15.304 50.7136461,16.581 49.5586461,17.589 C48.4706461,18.529 47.1906461,19 45.7216461,19 C44.2516461,19 42.9856461,18.53 41.9236461,17.589 C40.7816461,16.581 40.2106461,15.304 40.2106461,13.759 C40.2106461,12.214 40.7816461,10.937 41.9236461,9.929 C42.9856461,8.989 44.2516461,8.519 45.7216461,8.519 C47.1916461,8.519 48.4706461,8.989 49.5586461,9.929 Z M42.5926461,1 C42.5796461,2.545 42.8676461,3.775 43.4586461,4.689 C44.1406461,5.764 45.2356461,6.416 46.7446461,6.644 L46.7446461,8.86 C45.7041039,8.81595394 44.6876054,8.53334613 43.7736461,8.034 C42.76892,7.47546643 41.9430205,6.64367267 41.3916461,5.635 C40.8146461,6.656 39.9746461,7.463 38.8726461,8.054 C37.9416461,8.551 36.9836461,8.82 35.9996461,8.86 L35.9996461,6.664 C37.5086461,6.422 38.5976461,5.764 39.2666461,4.689 C39.8306461,3.789 40.1196461,2.559 40.1326461,1 L42.5926461,1 L42.5926461,1 Z M62.3096461,4.457 C61.7066461,4.997 61.4046461,5.64 61.4046461,6.39 C61.4046461,7.152 61.7066461,7.81 62.3096461,8.362 C62.9116461,8.914 63.6426461,9.19 64.4996461,9.19 C65.2896461,9.19 65.9796461,8.914 66.5696461,8.362 C67.1726461,7.81 67.4736461,7.152 67.4736461,6.39 C67.4736461,5.64 67.1726461,4.996 66.5696461,4.457 C66.0050333,3.94042084 65.2648568,3.65829559 64.4996461,3.668 C63.6556461,3.668 62.9256461,3.931 62.3096461,4.457 Z M68.4586461,3.589 C68.8866461,3.957 69.2156461,4.371 69.4426461,4.832 C69.6976461,5.318 69.8246461,5.85 69.8246461,6.429 C69.8246461,7.849 69.2686461,9.019 68.1566461,9.939 C67.1256461,10.807 65.9066461,11.241 64.4996461,11.241 C63.0396461,11.241 61.7866461,10.807 60.7416461,9.94 C59.6166461,9.02 59.0536461,7.85 59.0536461,6.43 C59.0536461,5.877 59.1676461,5.351 59.3956461,4.852 C59.5956461,4.418 59.8976461,3.997 60.2996461,3.589 L57.0446461,3.589 L57.0446461,1.578 L63.2136461,1.578 L63.2136461,0 L65.7656461,0 L65.7656461,1.578 L71.9146461,1.578 L71.9146461,3.589 L68.4586461,3.589 L68.4586461,3.589 Z M65.6856461,10.472 L65.6856461,14.949 L72.9996461,14.949 L72.9996461,17 L55.9996461,17 L55.9996461,14.949 L63.3136461,14.949 L63.3136461,10.472 L65.6856461,10.472 Z M90.4976461,4.982 L90.4976461,1 L92.8586461,1 L92.8586461,12.542 L90.4986461,12.542 L90.4986461,7.084 L84.9886461,7.084 L84.9886461,4.982 L90.4986461,4.982 L90.4976461,4.982 Z M77.7666461,11.835 L80.1266461,11.835 L80.1266461,15.918 L92.9996461,15.918 L92.9996461,18 L79.1796461,18 C78.7076461,18 78.3586461,17.885 78.1296461,17.656 C77.8876461,17.414 77.7666461,17.016 77.7666461,16.464 L77.7666461,11.834 L77.7666461,11.835 Z M86.6036461,1 L86.6036461,2.071 C86.6036461,5.091 85.5076461,7.253 83.3146461,8.56 C81.7816461,9.476 79.6766461,9.975 76.9996461,10.056 L76.9996461,7.832 C79.4476461,7.738 81.2636461,7.246 82.4476461,6.357 C83.5096461,5.562 84.0416461,4.463 84.0416461,3.062 L77.2616461,3.062 L77.2616461,1 L86.6036461,1 Z M111.696646,2.536 L111.696646,1 L113.999646,1 L113.999646,8.338 L111.696646,8.338 L111.696646,4.598 L108.429646,4.598 L108.429646,2.536 L111.696646,2.536 Z M111.696646,11.491 L99.2796461,11.491 L99.2796461,9.45 L113.999646,9.45 L113.999646,14.705 L101.581646,14.705 L101.581646,15.938 L113.999646,15.938 L113.999646,18 L100.656646,18 C100.196646,18 99.8566461,17.885 99.6326461,17.656 C99.3966461,17.414 99.2786461,17.023 99.2786461,16.484 L99.2786461,12.724 L111.696646,12.724 L111.696646,11.491 Z M104.572646,1 C104.572646,2.294 104.828646,3.345 105.340646,4.153 C106.022646,5.191 107.130646,5.817 108.666646,6.033 L108.666646,8.176 C107.550646,8.122 106.553646,7.839 105.674646,7.326 C104.743646,6.775 103.988646,5.986 103.411646,4.962 C102.810997,5.96978506 101.946579,6.79443959 100.911646,7.347 C99.9676461,7.859 98.9966461,8.135 97.9996461,8.177 L97.9996461,6.032 C99.5476461,5.816 100.656646,5.197 101.325646,4.172 C101.850646,3.377 102.112646,2.319 102.112646,0.999 L104.572646,0.999 L104.572646,1 Z" id="Shape"></path>
                </g>
            </g>
        </g>
    </g>
</svg>