<?xml version="1.0" encoding="UTF-8"?>
<svg width="230px" height="45px" viewBox="0 0 230 45" version="1.1" xmlns="http://www.w3.org/2000/svg" xmlns:xlink="http://www.w3.org/1999/xlink">
    <title>luvlu_logo</title>
    <defs>
        <polygon id="path-1" points="0 0 40 0 40 45 0 45"></polygon>
    </defs>
    <g id="luvlu_logo" stroke="none" stroke-width="1" fill="none" fill-rule="evenodd">
        <path d="M55.327,33.809 L68,33.809 L68,36 L50,36 L50,6 L52.312,6 C53.904,6 55.327,6.522 55.327,8.354 L55.327,33.81 L55.327,33.809 Z M139.324,33.809 L152,33.809 L152,36 L134,36 L134,6 L136.31,6 C137.9,6 139.324,6.522 139.324,8.354 L139.324,33.81 L139.324,33.809 Z M125.388,6 L116.33,28.423 L108.179,8.554 C108.179,8.554 107.322,6 104.36,6 L101,6 L113.64,36 L116.604,36 L129,6 L125.388,6 Z M91.91,7 L91.91,26.215 C91.91,30.481 90.533,34.843 84.606,34.843 C77.818,34.843 77.469,28.608 77.469,26.65 L77.469,11.16 L77.466,9.32 C77.466,7.515 76.007,7 74.377,7 L72,7 L72,25.605 C72,30.664 74.208,37 84.448,37 C92.137,37 95,31.572 95,25.847 L95,7 L91.91,7 Z M174.913,7 L174.913,26.215 C174.913,30.481 173.533,34.843 167.6,34.843 C160.81,34.843 160.463,28.608 160.463,26.65 L160.463,11.16 C160.463,11.16 160.458,9.928 160.458,9.32 C160.458,7.515 159,7 157.373,7 L155,7 L155,25.605 C155,30.664 157.2,37 167.45,37 C175.142,37 178,31.572 178,25.847 L178,7 L174.913,7 Z" id="Shape" fill="#004000" fill-rule="nonzero"></path>
        <g id="L_logo">
            <mask id="mask-2" fill="white">
                <use xlink:href="#path-1"></use>
            </mask>
            <g id="ejb384t07c"></g>
            <path d="M1.307,45 C1.111,45 0.913,44.954 0.729,44.863 C0.280919932,44.6391135 -0.00183266232,44.1808994 -0.00100183402,43.68 L-0.00100183402,8.532 C-0.00100183402,7.772 0.183,7.44 0.498998166,7.189 L9.273,0.283 C9.665,-0.029 10.203,-0.088 10.653,0.131 C11.107,0.353 11.393,0.816 11.393,1.321 L11.393,29.391 C11.393,30.136 11.38,31.205 10.516,31.893 C9.308,32.855 7.903,33.949 7.903,33.949 L7.903,4.703 L3.453,8.233 L3.453,40.353 C3.453,40.353 17.265,29.61 17.599,29.328 C20.421,26.932 28.114,20.423 38.963,22.925 C39.362,23.017 39.706,23.284 39.878,23.655 C40.053,24.034 40.039,24.474 39.849,24.839 C39.711,25.103 36.306,30.919 30.635,32.785 C25.23,34.566 19.835,32.365 19.835,32.365 C19.835,32.365 20.872,31.012 22.681,31.305 C24.491,31.599 27.5,31.625 30.271,30.272 C33.252,28.812 35.27,26.182 35.691,25.23 C28.766,24.158 24.475,27.454 19.281,31.351 C18.874,31.658 2.111,44.727 2.111,44.727 C1.88085178,44.9043468 1.59855116,45.001 1.308,45.001" id="Path" fill="#798D00" fill-rule="nonzero" mask="url(#mask-2)"></path>
        </g>
        <g id="숭의" transform="translate(188.600000, 12.784000)" fill="#798D00" fill-rule="nonzero">
            <path d="M19.872,18.864 C19.872,19.808 19.46,20.604 18.636,21.252 C17.812,21.9 16.808,22.224 15.624,22.224 L4.968,22.224 C3.784,22.224 2.78,21.9 1.956,21.252 C1.132,20.604 0.72,19.808 0.72,18.864 L0.72,17.16 C0.72,16.216 1.132,15.42 1.956,14.772 C2.78,14.124 3.784,13.8 4.968,13.8 L7.944,13.8 L7.944,12.888 L1.536,12.888 C1.024,12.888 0.64,12.772 0.384,12.54 C0.128,12.308 0,11.936 0,11.424 L0,9.24 L20.592,9.24 L20.592,11.424 C20.592,11.936 20.464,12.308 20.208,12.54 C19.952,12.772 19.568,12.888 19.056,12.888 L12.84,12.888 L12.84,13.344 C12.84,13.52 12.816,13.672 12.768,13.8 L15.624,13.8 C16.808,13.8 17.812,14.124 18.636,14.772 C19.46,15.42 19.872,16.216 19.872,17.16 L19.872,18.864 Z M10.32,5.256 C9.616,6.184 8.34,7.004 6.492,7.716 C4.644,8.428 2.72,8.784 0.72,8.784 L0.72,5.04 C2.384,5.04 4,4.632 5.568,3.816 C7.136,3 7.92,1.872 7.92,0.432 L7.92,0 L12.744,0 L12.744,0.432 C12.744,1.872 13.524,3 15.084,3.816 C16.644,4.632 18.256,5.04 19.92,5.04 L19.92,8.784 C17.92,8.784 15.996,8.428 14.148,7.716 C12.3,7.004 11.024,6.184 10.32,5.256 Z M15.144,18.024 C15.144,17.848 15.064,17.724 14.904,17.652 C14.744,17.58 14.392,17.544 13.848,17.544 L6.792,17.544 C6.248,17.544 5.896,17.58 5.736,17.652 C5.576,17.724 5.496,17.848 5.496,18.024 C5.496,18.184 5.576,18.304 5.736,18.384 C5.896,18.464 6.248,18.504 6.792,18.504 L13.848,18.504 C14.392,18.504 14.744,18.464 14.904,18.384 C15.064,18.304 15.144,18.184 15.144,18.024 Z" id="Shape"></path>
            <path d="M22.488,3.864 C22.488,2.728 22.828,1.816 23.508,1.128 C24.188,0.44 25.088,0.096 26.208,0.096 L31.632,0.096 C32.752,0.096 33.652,0.44 34.332,1.128 C35.012,1.816 35.352,2.728 35.352,3.864 L35.352,12.768 C35.352,13.888 35.012,14.796 34.332,15.492 C33.652,16.188 32.752,16.536 31.632,16.536 L26.208,16.536 C25.088,16.536 24.188,16.188 23.508,15.492 C22.828,14.796 22.488,13.888 22.488,12.768 L22.488,3.864 Z M27.432,11.544 C27.432,12.04 27.512,12.364 27.672,12.516 C27.832,12.668 28.04,12.744 28.296,12.744 L29.544,12.744 C29.8,12.744 30.008,12.668 30.168,12.516 C30.328,12.364 30.408,12.04 30.408,11.544 L30.408,5.088 C30.408,4.576 30.328,4.248 30.168,4.104 C30.008,3.96 29.8,3.888 29.544,3.888 L28.296,3.888 C28.04,3.888 27.832,3.96 27.672,4.104 C27.512,4.248 27.432,4.576 27.432,5.088 L27.432,11.544 Z M41.256,19.08 C41.256,19.96 40.956,20.7 40.356,21.3 C39.756,21.9 39.016,22.2 38.136,22.2 L36.384,22.2 L36.384,21.72 C36.16,21.784 35.816,21.856 35.352,21.936 C34.856,22.016 34.328,22.056 33.768,22.056 L24.048,22.056 C23.52,22.056 23.1,21.92 22.788,21.648 C22.476,21.376 22.32,20.984 22.32,20.472 L22.32,18.336 L33.912,18.336 C34.424,18.336 34.928,18.296 35.424,18.216 C35.872,18.168 36.192,18.104 36.384,18.024 L36.384,0.144 L41.256,0.144 L41.256,19.08 Z" id="Shape"></path>
        </g>
    </g>
</svg>