<?xml version="1.0" encoding="UTF-8"?>
<svg width="280px" height="82px" viewBox="0 0 280 82" version="1.1" xmlns="http://www.w3.org/2000/svg" xmlns:xlink="http://www.w3.org/1999/xlink">
    <title>kakao_btn</title>
    <defs>
        <polygon id="path-1" points="0 0 38 0 38 38 0 38"></polygon>
    </defs>
    <g id="ver.1" stroke="none" stroke-width="1" fill="none" fill-rule="evenodd">
        <g id="오시는길" transform="translate(-975.000000, -1206.000000)">
            <g id="kakao_btn" transform="translate(975.000000, 1206.000000)">
                <rect id="Rectangle-Copy" stroke="#595857" fill="#FFFFFF" x="0.5" y="0.5" width="279" height="81" rx="20"></rect>
                <g id="Group-2" transform="translate(63.000000, 20.000000)">
                    <text id="카카오맵" font-family="NotoSansKR-Regular, Noto Sans KR" font-size="30" font-weight="normal" fill="#000000">
                        <tspan x="43.8" y="35">카카오맵</tspan>
                    </text>
                    <g id="kakao_map" transform="translate(-0.000000, 3.000000)">
                        <g id="Group-3" transform="translate(19.000000, 19.000000) scale(-1, 1) rotate(-360.000000) translate(-19.000000, -19.000000) translate(0.000000, 0.000000)">
                            <mask id="mask-2" fill="white">
                                <use xlink:href="#path-1"></use>
                            </mask>
                            <g id="Clip-2"></g>
                            <path d="M29.230135,0 L8.76989051,0 C3.92637207,0 4.40536496e-13,3.92638817 4.40536496e-13,8.76977139 L4.40536496e-13,29.2302318 C4.40536496e-13,34.073623 3.92637207,38 8.76989051,38 L29.230135,38 C34.0736295,38 38,34.073623 38,29.2302318 L38,8.76977139 C38,3.92638817 34.0736295,0 29.230135,0" id="Fill-1" fill="#F9E000" mask="url(#mask-2)"></path>
                        </g>
                        <path d="M22.999892,15.0185283 C22.9840921,17.1524747 21.1007199,19.0191437 18.9829741,18.9998518 C16.8470775,18.9805599 14.9917606,17.1077724 14.9999884,14.9799444 C15.0082802,12.8544803 16.8918893,10.9901478 19.0216628,11 C21.1474179,11.009676 23.0154458,12.8968188 22.999892,15.0185283 M18.998488,4.00101735 C12.9196501,3.99695481 8.00903495,8.7316214 8,14.5898526 C7.99581953,17.2459853 9.12236811,19.5149135 10.8202557,21.4498548 C13.916754,24.9784674 16.6258726,28.6940559 18.1050199,33.1537084 C18.2386226,33.5562961 18.437527,34.0135878 19.0090705,33.9996909 C19.6309025,33.9845224 19.7980252,33.4720975 19.9455335,33.0383141 C21.3336213,28.9577494 23.6526507,25.4323405 26.583134,22.2308779 C28.325107,20.3277764 29.7220051,18.1349218 29.9563978,15.5591398 C30.5279498,9.28186427 25.4054278,3.91510951 18.998488,4.00101735" id="Fill-4" fill="#007DFD" transform="translate(18.999994, 19.000000) scale(-1, 1) rotate(-360.000000) translate(-18.999994, -19.000000) "></path>
                    </g>
                </g>
            </g>
        </g>
    </g>
</svg>