<?xml version="1.0" encoding="UTF-8"?>
<svg width="1920px" height="621px" viewBox="0 0 1920 621" version="1.1" xmlns="http://www.w3.org/2000/svg" xmlns:xlink="http://www.w3.org/1999/xlink">
    <title>Group 2</title>
    <defs>
        <polygon id="path-1" points="0 0 87.3743017 0 87.3743017 114 0 114"></polygon>
        <polygon id="path-3" points="0 0 151.955307 0 151.955307 171 0 171"></polygon>
    </defs>
    <g id="ver.1" stroke="none" stroke-width="1" fill="none" fill-rule="evenodd">
        <g id="모바일" transform="translate(0.000000, -2357.000000)">
            <g id="Group-2" transform="translate(0.000000, 2357.000000)">
                <rect id="Rectangle" fill="#798D00" x="0" y="0" width="1920" height="400"></rect>
                <g id="luvlu_logo_grey" transform="translate(0.000000, 450.000000)">
                    <path d="M213.979665,128.4742 L262.122905,128.4742 L262.122905,136.8 L193.743017,136.8 L193.743017,22.8 L202.526034,22.8 C208.573855,22.8 213.979665,24.7836 213.979665,31.7452 L213.979665,128.478 L213.979665,128.4742 Z M533.074413,128.4742 L581.22905,128.4742 L581.22905,136.8 L512.849162,136.8 L512.849162,22.8 L521.624581,22.8 C527.664804,22.8 533.074413,24.7836 533.074413,31.7452 L533.074413,128.478 L533.074413,128.4742 Z M480.133184,22.8 L445.722905,108.0074 L414.758212,32.5052 C414.758212,32.5052 411.50257,22.8 400.250279,22.8 L387.486034,22.8 L435.503911,136.8 L446.763799,136.8 L493.854749,22.8 L480.133184,22.8 Z M352.95419,26.6 L352.95419,99.617 C352.95419,115.8278 347.723128,132.4034 325.207151,132.4034 C299.420335,132.4034 298.094525,108.7104 298.094525,101.27 L298.094525,42.408 L298.083128,35.416 C298.083128,28.557 292.540559,26.6 286.34838,26.6 L277.318436,26.6 L277.318436,97.299 C277.318436,116.5232 285.706369,140.6 324.606927,140.6 C353.816536,140.6 364.692737,119.9736 364.692737,98.2186 L364.692737,26.6 L352.95419,26.6 Z" id="Shape" fill="#F4F4F4" fill-rule="nonzero"></path>
                    <g id="Clipped" transform="translate(592.625698, 26.600000)">
                        <mask id="mask-2" fill="white">
                            <use xlink:href="#path-1"></use>
                        </mask>
                        <g id="3vhor1x37a"></g>
                        <path d="M75.6471508,0 L75.6471508,73.017 C75.6471508,89.2278 70.4046927,105.8034 47.8659218,105.8034 C22.0715084,105.8034 20.7532961,82.1104 20.7532961,74.67 L20.7532961,15.808 C20.7532961,15.808 20.7343017,11.1264 20.7343017,8.816 C20.7343017,1.957 15.1955307,0 9.0147486,0 L0,0 L0,70.699 C0,89.9232 8.3575419,114 47.2960894,114 C76.517095,114 87.3743017,93.3736 87.3743017,71.6186 L87.3743017,0 L75.6471508,0 Z" id="Path" fill="#F4F4F4" fill-rule="nonzero" mask="url(#mask-2)"></path>
                    </g>
                    <g id="Clipped">
                        <mask id="mask-4" fill="white">
                            <use xlink:href="#path-3"></use>
                        </mask>
                        <g id="ejb384t07c"></g>
                        <path d="M4.96513966,171 C4.22055866,171 3.46837989,170.8252 2.76938547,170.4794 C1.06718187,169.628631 -0.00696206913,167.887418 -0.00380584991,165.984 L-0.00380584991,32.4216 C-0.00380584991,29.5336 0.695195531,28.272 1.89564246,27.3182 L35.2270391,1.0754 C36.7162011,-0.1102 38.76,-0.3344 40.4694972,0.4978 C42.1941899,1.3414 43.2806704,3.1008 43.2806704,5.0198 L43.2806704,111.6858 C43.2806704,114.5168 43.2312849,118.579 39.9490503,121.1934 C35.36,124.849 30.0225698,129.0062 30.0225698,129.0062 L30.0225698,17.8714 L13.1175419,31.2854 L13.1175419,153.3414 C13.1175419,153.3414 65.5877095,112.518 66.8565363,111.4464 C77.5769832,102.3416 106.801788,77.6074 148.015866,87.115 C149.53162,87.4646 150.838436,88.4792 151.491844,89.889 C152.156648,91.3292 152.103464,93.0012 151.381676,94.3882 C150.85743,95.3914 137.922235,117.4922 116.378771,124.583 C95.8458101,131.3508 75.350838,122.987 75.350838,122.987 C75.350838,122.987 79.2902793,117.8456 86.1624581,118.959 C93.0384358,120.0762 104.469274,120.175 114.995978,115.0336 C126.320447,109.4856 133.986592,99.4916 135.585922,95.874 C109.278659,91.8004 92.9776536,104.3252 73.246257,119.1338 C71.7001117,120.3004 8.01944134,169.9626 8.01944134,169.9626 C7.14513525,170.636518 6.0727083,171.0038 4.96893855,171.0038" id="Path" fill="#F4F4F4" fill-rule="nonzero" mask="url(#mask-4)"></path>
                    </g>
                </g>
            </g>
        </g>
    </g>
</svg>