<?xml version="1.0" encoding="UTF-8"?>
<svg width="330px" height="370px" viewBox="0 0 330 370" version="1.1" xmlns="http://www.w3.org/2000/svg" xmlns:xlink="http://www.w3.org/1999/xlink">
    <title>L_logo</title>
    <defs>
        <polygon id="path-1" points="0 0 330 0 330 370 0 370"></polygon>
    </defs>
    <g id="ver.1" stroke="none" stroke-width="1" fill="none" fill-rule="evenodd" opacity="0.200000003">
        <g id="메인" transform="translate(-795.000000, -2572.000000)">
            <g id="평면정보" transform="translate(0.000000, 2357.000000)">
                <g id="66평면정보" transform="translate(760.000000, 150.000000)">
                    <g id="L_logo" transform="translate(35.000000, 65.000000)">
                        <mask id="mask-2" fill="white">
                            <use xlink:href="#path-1"></use>
                        </mask>
                        <g id="ejb384t07c"></g>
                        <path d="M10.78275,370 C9.16575,370 7.53225,369.621778 6.01425,368.873556 C2.31758944,367.032711 -0.0151194641,363.265173 -0.00826513067,359.146667 L-0.00826513067,70.152 C-0.00826513067,63.9031111 1.50975,61.1733333 4.11675,59.1095556 L76.50225,2.32688889 C79.73625,-0.238444444 84.17475,-0.723555556 87.88725,1.07711111 C91.63275,2.90244444 93.99225,6.70933333 93.99225,10.8615556 L93.99225,241.659333 C93.99225,247.784889 93.885,256.574444 86.757,262.231333 C76.791,270.141111 65.19975,279.136222 65.19975,279.136222 L65.19975,38.6691111 L28.48725,67.6935556 L28.48725,331.791333 C28.48725,331.791333 142.43625,243.46 145.19175,241.141333 C168.47325,221.440889 231.9405,167.922444 321.44475,188.494444 C324.7365,189.250889 327.5745,191.446222 328.9935,194.496667 C330.43725,197.612889 330.32175,201.230667 328.75425,204.231778 C327.61575,206.402444 299.5245,254.222889 252.73875,269.565556 C208.1475,284.209333 163.63875,266.112222 163.63875,266.112222 C163.63875,266.112222 172.194,254.987556 187.11825,257.396667 C202.05075,259.814 226.875,260.027778 249.73575,248.903111 C274.329,236.898667 290.9775,215.274222 294.45075,207.446667 C237.3195,198.632444 201.91875,225.732889 159.06825,257.774889 C155.7105,260.299111 17.41575,367.755333 17.41575,367.755333 C15.5170272,369.213518 13.188047,370.008222 10.791,370.008222" id="Path" fill="#798D00" fill-rule="nonzero" mask="url(#mask-2)"></path>
                    </g>
                </g>
            </g>
        </g>
    </g>
</svg>