<?xml version="1.0" encoding="UTF-8"?>
<svg width="516px" height="506px" viewBox="0 0 516 506" version="1.1" xmlns="http://www.w3.org/2000/svg" xmlns:xlink="http://www.w3.org/1999/xlink">
    <title>sungho_logo</title>
    <defs>
        <polygon id="path-1" points="0 0 515.947025 0 515.947025 172.975097 0 172.975097"></polygon>
        <polygon id="path-3" points="0 0 16.9982547 0 16.9982547 76.9889161 0 76.9889161"></polygon>
        <polygon id="path-5" points="0 0 63.9934295 0 63.9934295 64.9906434 0 64.9906434"></polygon>
    </defs>
    <g id="ver.1" stroke="none" stroke-width="1" fill="none" fill-rule="evenodd">
        <g id="사업안내-_브랜드스토리" transform="translate(-702.000000, -1972.000000)">
            <g id="sungho_logo" transform="translate(702.000000, 1972.000000)">
                <g id="Group-6">
                    <path d="M337.392616,279.56518 C333.63171,279.56518 329.920031,279.358003 326.265455,278.961408 C343.660136,253.573391 354.706565,223.479506 357.110788,190.972506 L279.504205,190.972506 C277.017282,209.90845 269.34976,227.206712 257.974497,241.393379 C246.597265,227.206712 238.929744,209.90845 236.44282,190.972506 L158.838206,190.972506 C161.24046,223.479506 172.28689,253.573391 189.681571,278.961408 C186.026994,279.358003 182.315315,279.56518 178.554409,279.56518 C126.864601,279.56518 84.1733998,240.971133 77.6046139,190.972506 L0,190.972506 C6.86020691,283.78369 84.1812761,356.948611 178.554409,356.948611 C207.076251,356.948611 234.040566,350.265685 257.974497,338.377692 C281.906459,350.265685 308.870774,356.948611 337.392616,356.948611 C431.767718,356.948611 509.086818,283.78369 515.947025,190.972506 L438.342411,190.972506 C431.773625,240.971133 389.082424,279.56518 337.392616,279.56518" id="Fill-1" fill="#1F679F"></path>
                    <g id="Group-5">
                        <mask id="mask-2" fill="white">
                            <use xlink:href="#path-1"></use>
                        </mask>
                        <g id="Clip-4"></g>
                        <path d="M178.644765,78.3506229 C182.401402,78.3506229 186.108867,78.5583912 189.759295,78.9619412 C171.520925,105.943851 160.270684,138.177903 158.657888,172.975097 L235.948217,172.975097 C237.677057,151.878624 245.644666,132.584141 257.972726,116.999521 C270.302753,132.584141 278.270362,151.878624 279.999201,172.975097 L357.289531,172.975097 C355.676734,138.177903 344.426494,105.943851 326.188124,78.9619412 C329.838552,78.5583912 333.546017,78.3506229 337.302653,78.3506229 C390.595749,78.3506229 434.312372,119.982195 438.657089,172.975097 L515.947419,172.975097 C511.482725,76.6804855 433.21095,0 337.302653,0 C308.81319,0 281.879486,6.76645401 257.972726,18.8030308 C234.067933,6.76645401 207.134228,0 178.644765,0 C82.7364686,0 4.46272636,76.6804855 0,172.975097 L77.2903296,172.975097 C81.6330796,119.982195 125.35167,78.3506229 178.644765,78.3506229" id="Fill-3" fill="#1F679F" mask="url(#mask-2)"></path>
                    </g>
                </g>
                <g id="Group-17" transform="translate(38.995996, 428.938247)">
                    <g id="Group-3" transform="translate(-0.211899, 0.072837)">
                        <mask id="mask-4" fill="white">
                            <use xlink:href="#path-3"></use>
                        </mask>
                        <g id="Clip-2"></g>
                        <path d="M16.9982547,76.9889161 C10.7352142,74.5520495 6.26965091,69.9635101 3.60156473,63.2246368 C1.09662984,57.1070306 -0.101688261,48.655656 0.0066104402,37.871852 C0.0066104402,27.3478019 1.36807983,19.0008645 4.0910186,12.8310397 C6.86880996,6.50589814 11.171222,2.22933122 16.9982547,0 L16.9982547,10.4986103 C13.9490134,12.2084337 11.770381,16.175706 10.4637642,22.3964104 C9.59174873,26.6997561 9.15574097,31.9095626 9.15574097,38.0271688 C9.10088838,44.2492121 9.51017309,49.536677 10.3807821,53.8922413 C11.6888054,60.4249182 13.8941608,64.6492665 16.9982547,66.5679642 L16.9982547,76.9889161 Z" id="Fill-1" fill="#3273B9" mask="url(#mask-4)"></path>
                    </g>
                    <path d="M67.1975465,13.0233315 C67.3509792,17.151644 69.8350028,20.1596778 74.6496173,22.0461165 C78.4391421,23.4731224 84.0473743,24.3143187 91.4743139,24.568389 L91.4743139,32.368214 C84.9177085,32.164168 79.4893629,31.5770419 75.186632,30.6094687 C68.4779165,29.0797815 63.8431887,26.5561925 61.2824487,23.0400182 C58.7217087,26.5561925 54.0089419,29.0797815 47.1467936,30.6094687 C42.7938002,31.5770419 37.4408484,32.164168 31.0905836,32.368214 L31.0905836,24.568389 C38.465938,24.3643429 44.0741702,23.5231466 47.9152802,22.0461165 C52.7285719,20.1596778 55.2125955,17.151644 55.367351,13.0233315 L31.0905836,13.0233315 L31.0905836,5.07211746 L91.4743139,5.07211746 L91.4743139,13.0233315 L67.1975465,13.0233315 Z M56.7495686,70.0627609 L56.7495686,48.959133 L28.785124,48.959133 L28.785124,41.007919 L93.7784508,41.007919 L93.7784508,48.959133 L65.6605734,48.959133 L65.6605734,70.0627609 L56.7495686,70.0627609 Z" id="Fill-4" fill="#3273B9"></path>
                    <path d="M112.233178,53.9883525 C113.159077,49.5341829 113.622026,44.2252944 113.622026,38.0616868 C113.568555,32.0024111 113.105605,26.7978545 112.233178,22.4466792 C110.925945,16.2322433 108.773021,12.2689687 105.777219,10.5608682 L105.777219,0.0728371959 C111.607001,2.35075033 115.911443,6.62434543 118.689138,12.8909473 C121.413362,19.0545549 122.775474,27.3930813 122.775474,37.9065265 C122.775474,48.6794639 121.549854,57.1223222 119.098616,63.2337639 C116.374392,69.9658465 111.933458,74.5751763 105.777219,77.0617533 L105.777219,66.6513024 C108.827899,64.7358757 110.979416,60.5144465 112.233178,53.9883525" id="Fill-6" fill="#3273B9"></path>
                    <path d="M191.557399,12.4889454 L191.557399,5.07211746 L200.767466,5.07211746 L200.767466,35.2794639 L191.557399,35.2794639 L191.557399,20.3686601 L178.254572,20.3686601 L178.254572,12.4889454 L191.557399,12.4889454 Z M167.156685,45.5547501 C164.532982,47.8718438 163.22113,50.6784269 163.22113,53.9758294 C163.22113,57.2200266 164.532982,60.0013371 167.156685,62.3184308 C169.674682,64.5849793 172.561298,65.7182536 175.815178,65.7182536 C179.120557,65.7182536 182.032922,64.5849793 184.552273,62.3184308 C187.175977,60.0013371 188.487829,57.2200266 188.487829,53.9758294 C188.487829,50.6784269 187.175977,47.8718438 184.552273,45.5547501 C182.032922,43.3906219 179.120557,42.3092228 175.815178,42.3092228 C172.561298,42.3092228 169.674682,43.3906219 167.156685,45.5547501 L167.156685,45.5547501 Z M191.005825,39.296469 C195.624411,43.1591785 197.933703,48.0527421 197.933703,53.9758294 C197.933703,59.8975866 195.624411,64.7911501 191.005825,68.6538597 C186.651507,72.2585232 181.534201,74.0621851 175.657973,74.0621851 C169.780389,74.0621851 164.715936,72.2585232 160.46597,68.6538597 C155.900238,64.7911501 153.61805,59.8975866 153.61805,53.9758294 C153.61805,48.0527421 155.900238,43.1591785 160.46597,39.296469 C164.715936,35.6918055 169.780389,33.8881436 175.657973,33.8881436 C181.534201,33.8881436 186.651507,35.6918055 191.005825,39.296469 L191.005825,39.296469 Z M163.142528,5.07211746 C163.089674,10.9952048 164.24432,15.7078701 166.605111,19.2101133 C169.334522,23.3308689 173.715944,25.8288608 179.750733,26.704089 L179.750733,35.2023161 C175.447914,34.9961453 171.485254,33.9400188 167.865465,32.0352667 C163.824203,29.8711384 160.648925,26.8065094 158.340987,22.8413795 C156.031695,26.7559643 152.673463,29.8458659 148.264936,32.1124145 C144.53944,34.0171666 140.709591,35.0480205 136.774036,35.2023161 L136.774036,26.7812368 C142.80747,25.8541333 147.163143,23.3308689 149.8397,19.2101133 C152.096139,15.7597453 153.250786,11.04708 153.303639,5.07211746 L163.142528,5.07211746 Z" id="Fill-8" fill="#3273B9"></path>
                    <path d="M240.888326,17.635962 C238.584142,19.760771 237.430728,22.2990345 237.430728,25.2520908 C237.430728,28.2573307 238.584142,30.8477778 240.888326,33.0234323 C243.19251,35.1990868 245.984778,36.2869141 249.262487,36.2869141 C252.283586,36.2869141 254.921096,35.1990868 257.175017,33.0234323 C259.480523,30.8477778 260.632615,28.2573307 260.632615,25.2520908 C260.632615,22.2990345 259.480523,19.760771 257.175017,17.635962 C254.921096,15.5633367 252.283586,14.527693 249.262487,14.527693 C246.035042,14.527693 243.244096,15.5633367 240.888326,17.635962 L240.888326,17.635962 Z M264.397085,14.2159295 C266.035939,15.6677039 267.291204,17.2987757 268.161556,19.1131592 C269.133757,21.0292337 269.620519,23.1272819 269.620519,25.4073035 C269.620519,31.0029906 267.494903,35.6138795 263.244993,39.2413084 C259.300633,42.6600029 254.640679,44.3700191 249.262487,44.3700191 C243.679272,44.3700191 238.891014,42.6600029 234.89639,39.2413084 C230.593571,35.6138795 228.442823,31.0029906 228.442823,25.4073035 C228.442823,23.231649 228.877999,21.1590237 229.748351,19.1907655 C230.516853,17.4807493 231.668945,15.8229166 233.20595,14.2159295 L220.760447,14.2159295 L220.760447,6.2893752 L244.345924,6.2893752 L244.345924,0.0728371959 L254.102331,0.0728371959 L254.102331,6.2893752 L277.61109,6.2893752 L277.61109,14.2159295 L264.397085,14.2159295 Z M253.795459,41.3393565 L253.795459,58.9800877 L281.75915,58.9800877 L281.75915,67.0631927 L216.765823,67.0631927 L216.765823,58.9800877 L244.729514,58.9800877 L244.729514,41.3393565 L253.795459,41.3393565 Z" id="Fill-10" fill="#3273B9"></path>
                    <path d="M350.057318,20.2959422 L350.057318,5.07211746 L359.20467,5.07211746 L359.20467,49.1975259 L350.057318,49.1975259 L350.057318,28.3322908 L328.715291,28.3322908 L328.715291,20.2959422 L350.057318,20.2959422 Z M300.728109,46.4925761 L309.874115,46.4925761 L309.874115,62.1035825 L359.751142,62.1035825 L359.751142,70.0627609 L306.200906,70.0627609 C304.375743,70.0627609 303.021677,69.6250194 302.134669,68.7495364 C301.196513,67.822163 300.728109,66.3027077 300.728109,64.1898399 L300.728109,46.4925761 Z M334.968763,5.07211746 L334.968763,9.16746202 C334.968763,20.7084038 330.722163,28.9762631 322.22627,33.9737011 C316.285068,37.4769637 308.128365,39.3836008 297.757507,39.6922817 L297.757507,31.1915811 C307.242703,30.8310098 314.278196,28.9509832 318.865332,25.5515013 C322.982717,22.5112601 325.040737,18.3121349 325.040737,12.9541256 L298.77373,12.9541256 L298.77373,5.07211746 L334.968763,5.07211746 Z" id="Fill-12" fill="#3273B9"></path>
                    <g id="Group-16" transform="translate(374.749602, 5.072117)">
                        <mask id="mask-6" fill="white">
                            <use xlink:href="#path-5"></use>
                        </mask>
                        <g id="Clip-15"></g>
                        <path d="M54.7837109,5.87292102 L54.7837109,0 L63.9938361,0 L63.9938361,28.0513806 L54.7837109,28.0513806 L54.7837109,13.7549292 L41.7179639,13.7549292 L41.7179639,5.87292102 L54.7837109,5.87292102 Z M54.7837109,40.1072341 L5.11598329,40.1072341 L5.11598329,32.3023961 L63.9938361,32.3023961 L63.9938361,52.3945983 L14.3247532,52.3945983 L14.3247532,57.1086353 L63.9938361,57.1086353 L63.9938361,64.9906434 L10.6263378,64.9906434 C8.78864945,64.9906434 7.42529072,64.5529019 6.53219589,63.6774189 C5.58760242,62.7500456 5.11598329,61.2558702 5.11598329,59.1948927 L5.11598329,44.821271 L54.7837109,44.821271 L54.7837109,40.1072341 Z M26.2900556,0 C26.2900556,4.94554767 27.3132523,8.963722 29.3596456,12.054523 C32.0877183,16.0221375 36.5220222,18.4170758 42.6625574,19.241999 L42.6625574,27.4340187 C38.2011489,27.2277879 34.21407,26.1460741 30.697255,24.1875467 C26.971735,22.0760094 23.9549989,19.0623787 21.6456914,15.1466545 C19.2320315,19.0104883 15.8995274,22.049399 11.6495344,24.264717 C7.87116052,26.2232443 3.9870789,27.2783477 0,27.4340187 L0,19.241999 C6.19203382,18.4170758 10.6263378,16.0474174 13.3015566,12.1330237 C15.4008037,9.09278257 16.451105,5.04799781 16.451105,0 L26.2900556,0 Z" id="Fill-14" fill="#3273B9" mask="url(#mask-6)"></path>
                    </g>
                </g>
            </g>
        </g>
    </g>
</svg>